<?xml version="1.0" standalone="no"?>
<!DOCTYPE svg PUBLIC "-//W3C//DTD SVG 20010904//EN"
 "http://www.w3.org/TR/2001/REC-SVG-20010904/DTD/svg10.dtd">
<svg version="1.0" xmlns="http://www.w3.org/2000/svg"
 width="300.000000pt" height="300.000000pt" viewBox="0 0 300.000000 300.000000"
 preserveAspectRatio="xMidYMid meet">

<g transform="translate(0.000000,300.000000) scale(0.100000,-0.100000)"
fill="#000000" stroke="none">
<path d="M1428 484 c-32 -17 -45 -55 -32 -93 5 -15 34 -42 67 -64 48 -32 57
-42 57 -67 0 -63 -85 -74 -112 -15 -16 36 -31 31 -23 -7 9 -42 19 -48 78 -48
60 0 97 31 97 83 0 36 -16 54 -87 100 -34 21 -43 33 -43 55 0 34 16 52 47 52
22 0 28 -5 59 -45 15 -19 15 -18 10 15 -4 18 -12 38 -19 42 -19 12 -70 9 -99
-8z"/>
<path d="M658 474 c21 -14 22 -23 22 -132 0 -127 -11 -186 -38 -201 -9 -5 -14
-13 -10 -17 10 -10 55 21 70 48 7 14 14 77 16 161 4 130 6 139 26 147 15 6 3
9 -44 9 -61 1 -63 0 -42 -15z"/>
<path d="M2001 481 c-17 -11 -7 -41 13 -41 22 0 30 20 15 36 -9 8 -19 10 -28
5z"/>
<path d="M2363 449 c-7 -7 -13 -21 -13 -31 0 -10 -7 -21 -15 -24 -14 -6 -14
-8 -1 -18 11 -8 16 -35 18 -96 3 -82 4 -85 28 -88 14 -2 34 4 45 13 20 16 20
16 -2 10 -31 -9 -45 23 -41 98 3 61 4 62 33 66 l30 4 -30 6 c-25 5 -31 12 -35
39 -4 27 -7 31 -17 21z"/>
<path d="M815 383 c-37 -19 -47 -35 -34 -48 6 -6 18 1 34 20 20 25 27 28 42
19 10 -6 19 -21 21 -33 3 -18 -6 -25 -47 -42 -57 -24 -70 -48 -47 -84 18 -27
45 -32 77 -12 17 10 23 10 26 0 6 -18 38 -16 53 2 10 12 10 15 -3 15 -12 0
-16 17 -19 76 -3 60 -7 79 -23 90 -24 18 -43 17 -80 -3z m63 -120 c-3 -35 -6
-38 -33 -38 -42 0 -48 38 -8 59 41 22 45 20 41 -21z"/>
<path d="M1212 380 c-19 -11 -32 -26 -30 -32 8 -22 25 -19 36 7 18 39 59 30
64 -15 3 -20 -4 -27 -39 -40 -55 -20 -65 -31 -61 -65 4 -39 29 -53 69 -38 24
9 36 10 46 1 10 -8 21 -8 41 2 27 12 27 12 5 21 -21 8 -23 15 -23 77 0 99 -35
126 -108 82z m76 -117 c-3 -35 -6 -38 -33 -38 -42 0 -48 38 -8 59 41 22 45 20
41 -21z"/>
<path d="M1675 390 c-72 -29 -96 -130 -42 -176 15 -13 39 -24 52 -24 31 0 72
19 79 36 6 16 -10 19 -19 4 -3 -5 -19 -10 -35 -10 -59 0 -94 96 -50 140 23 23
33 24 61 9 29 -15 56 -4 39 16 -13 16 -53 19 -85 5z"/>
<path d="M1840 393 c-42 -12 -42 -12 -26 -29 21 -21 22 -127 1 -148 -23 -23
-19 -26 35 -26 50 0 67 13 30 23 -17 4 -20 14 -20 57 0 64 14 92 43 88 29 -3
47 9 40 27 -8 21 -37 18 -59 -6 -18 -20 -19 -20 -24 -1 -3 11 -11 17 -20 15z"/>
<path d="M2010 393 c-46 -14 -46 -14 -27 -24 23 -14 25 -146 2 -155 -30 -12
-14 -24 30 -24 25 0 45 5 45 10 0 6 -4 10 -10 10 -6 0 -10 36 -10 89 0 91 -3
102 -30 94z"/>
<path d="M2103 393 c-26 -5 -31 -23 -8 -23 13 0 15 -21 15 -130 0 -107 -3
-132 -15 -136 -31 -12 -13 -24 35 -24 28 0 50 5 50 10 0 6 -7 10 -15 10 -11 0
-15 12 -15 45 0 42 2 45 26 45 90 0 150 125 89 185 -28 29 -61 32 -93 9 -20
-14 -22 -14 -22 0 0 16 -6 17 -47 9z m129 -40 c26 -23 25 -96 -2 -123 -21 -21
-37 -24 -64 -14 -20 8 -23 139 -3 147 24 10 51 7 69 -10z"/>
<path d="M962 378 c9 -7 32 -51 50 -97 18 -46 37 -83 43 -83 5 0 26 39 46 87
19 48 42 91 50 96 10 6 2 9 -26 9 -26 0 -35 -3 -26 -9 11 -7 11 -17 -3 -57
-27 -80 -31 -81 -56 -14 -19 52 -21 63 -9 71 9 6 -3 9 -35 9 -42 0 -47 -2 -34
-12z"/>
</g>
</svg>
